# xmcd CD database file
#
# Track frame offsets:
#	150
#	9478
#	43460
#	62765
#	80928
#	98038
#	156748
#	181356
#	207372
#	236439
#	250052
#	268213
#
# Disc length: 4641 seconds
#
# Revision: 4
# Processed by: cddbd v1.4PL0 Copyright (c) Steve Scherf et al.
# Submitted via: CDex 1.50
#
DISCID=af121f0c
DTITLE=EDDIE HIGGINS - EDDIE HIGGINS IN CHICAGO
DYEAR=1995
DGENRE=Jazz
TTITLE0=MY TIME OF DAY
TTITLE1=NIGHTINGALE
TTITLE2=IN A MIST
TTITLE3=LELA
TTITLE4=HOW LONG HAS THIS BEEN GOING ON?
TTITLE5=WEST SIDE STORY MEDLEY:
TTITLE6=DREAM DANCING
TTITLE7=AIR FOR G STRING
TTITLE8=DUKE ELLINGTON MEDLEY:
TTITLE9=VALSA DE PORTO DAS CAIXAS
TTITLE10=GREENSLEEVES
TTITLE11=PORGY AND BES MEDLEY:
EXTD=YEAR: 1995
EXTT0=
EXTT1=
EXTT2=
EXTT3=
EXTT4=
EXTT5=
EXTT6=
EXTT7=
EXTT8=
EXTT9=
EXTT10=
EXTT11=
PLAYORDER=
